<svg width="890" height="273" viewBox="0 0 890 273" fill="none" xmlns="http://www.w3.org/2000/svg">
<g clip-path="url(#clip0_201_730)">
<path d="M272.13 0.0699463H0V272.2H272.13V0.0699463Z" fill="#B3A574"/>
<path d="M6.29004 5.67004V136.84L100.09 64.87L140.38 105L140.39 105.01L231.91 36.37L265.84 70.15V5.67004H6.29004Z" fill="#8D132B"/>
<path d="M237.4 83.7L229.18 75.51L198.48 98.53L147.4 136.84H97.93L116.4 122.99L97.55 104.22L55.03 136.84H80.25V272.2H191.88V136.84H231.58H265.84V112.03L237.4 83.7Z" fill="#005470"/>
<path d="M231.91 36.37L140.39 105.01L140.38 105L100.09 64.87L6.29004 136.84H55.03L97.55 104.22L116.4 122.99L97.93 136.84H147.4L198.48 98.53L229.18 75.51L237.4 83.7L252.3 98.53L265.84 112.03V72.86V70.15L231.91 36.37Z" fill="#FDFEFD"/>
<path d="M313.64 240V260.36C313.674 261.879 313.387 263.389 312.8 264.79C312.284 265.991 311.509 267.063 310.53 267.93C309.55 268.781 308.407 269.424 307.17 269.82C305.839 270.247 304.448 270.459 303.05 270.45C301.632 270.462 300.221 270.25 298.87 269.82C297.635 269.427 296.495 268.783 295.52 267.93C294.551 267.066 293.791 265.992 293.3 264.79C292.733 263.383 292.457 261.876 292.49 260.36V240H295V260.36C294.976 261.544 295.179 262.722 295.6 263.83C295.959 264.771 296.531 265.616 297.27 266.3C298.002 266.972 298.868 267.483 299.81 267.8C301.912 268.467 304.168 268.467 306.27 267.8C307.212 267.483 308.078 266.972 308.81 266.3C309.54 265.61 310.107 264.766 310.47 263.83C310.891 262.722 311.094 261.544 311.07 260.36V240H313.64Z" fill="#005470"/>
<path d="M343.07 270H340.54L323.27 244.29V270H320.71V240H323.27L340.56 265.73V240H343.07V270Z" fill="#005470"/>
<path d="M363.54 267.88H378.37V270H361V240H363.56L363.54 267.88Z" fill="#005470"/>
<path d="M402.81 240V260.36C402.842 261.878 402.56 263.386 401.98 264.79C401.464 265.991 400.689 267.063 399.71 267.93C398.73 268.781 397.587 269.424 396.35 269.82C395.019 270.247 393.628 270.459 392.23 270.45C390.812 270.462 389.401 270.25 388.05 269.82C386.816 269.427 385.675 268.783 384.7 267.93C383.731 267.064 382.969 265.991 382.47 264.79C381.911 263.381 381.639 261.875 381.67 260.36V240H384.19V260.36C384.167 261.543 384.368 262.721 384.78 263.83C385.147 264.769 385.721 265.614 386.46 266.3C387.192 266.972 388.058 267.483 389 267.8C391.102 268.467 393.358 268.467 395.46 267.8C396.402 267.483 397.268 266.972 398 266.3C398.73 265.61 399.297 264.766 399.66 263.83C400.081 262.722 400.284 261.544 400.26 260.36V240H402.81Z" fill="#005470"/>
<path d="M431.57 266.46C431.222 266.923 430.822 267.346 430.38 267.72C429.76 268.251 429.066 268.689 428.32 269.02C427.339 269.455 426.318 269.79 425.27 270.02C423.909 270.309 422.521 270.447 421.13 270.43C419.455 270.438 417.797 270.097 416.26 269.43C414.808 268.806 413.511 267.871 412.46 266.69C411.35 265.431 410.503 263.962 409.97 262.37C409.359 260.533 409.062 258.606 409.09 256.67V253.02C409.063 251.126 409.333 249.24 409.89 247.43C410.371 245.872 411.16 244.427 412.21 243.18C413.212 242.016 414.463 241.093 415.87 240.48C417.401 239.823 419.054 239.5 420.72 239.53C422.217 239.502 423.709 239.729 425.13 240.2C426.33 240.601 427.438 241.237 428.39 242.07C429.281 242.855 430.005 243.81 430.52 244.88C431.036 245.993 431.374 247.181 431.52 248.4H429C428.853 247.516 428.591 246.656 428.22 245.84C427.851 245.033 427.324 244.309 426.67 243.71C425.959 243.068 425.13 242.569 424.23 242.24C423.104 241.855 421.919 241.672 420.73 241.7C419.386 241.673 418.053 241.95 416.83 242.51C415.715 243.041 414.739 243.825 413.98 244.8C413.161 245.859 412.56 247.068 412.21 248.36C411.795 249.864 411.593 251.42 411.61 252.98V256.67C411.591 258.289 411.821 259.901 412.29 261.45C412.698 262.774 413.353 264.009 414.22 265.09C415.035 266.08 416.059 266.876 417.22 267.42C418.443 267.98 419.775 268.26 421.12 268.24C422.146 268.253 423.17 268.169 424.18 267.99C424.961 267.841 425.727 267.624 426.47 267.34C427.029 267.115 427.562 266.83 428.06 266.49C428.433 266.249 428.77 265.956 429.06 265.62V257.87H421V255.72H431.6L431.57 266.46Z" fill="#005470"/>
<path d="M455 261.61H441.35L438.25 270.03H435.59L447 240H449.41L460.78 270H458.1L455 261.61ZM442.15 259.44H454.15L448.15 243.09L442.15 259.44Z" fill="#005470"/>
<path d="M476.38 257.53H467.65V270H465.09V240H474.85C476.284 239.98 477.714 240.175 479.09 240.58C480.267 240.923 481.363 241.502 482.31 242.28C483.183 243.039 483.868 243.991 484.31 245.06C484.802 246.262 485.043 247.552 485.02 248.85C485.026 249.802 484.874 250.748 484.57 251.65C484.275 252.501 483.842 253.298 483.29 254.01C482.724 254.716 482.049 255.327 481.29 255.82C480.512 256.34 479.659 256.738 478.76 257L486.27 269.77V270H483.57L476.38 257.53ZM467.65 255.36H475.43C476.482 255.381 477.528 255.198 478.51 254.82C479.343 254.506 480.099 254.018 480.73 253.39C481.314 252.798 481.768 252.089 482.06 251.31C482.356 250.52 482.505 249.683 482.5 248.84C482.516 247.89 482.35 246.947 482.01 246.06C481.693 245.248 481.186 244.524 480.53 243.95C479.831 243.344 479.014 242.891 478.13 242.62C477.068 242.295 475.961 242.14 474.85 242.16H467.65V255.36Z" fill="#005470"/>
<path d="M504.78 257.79V270H502.24V240H512.48C513.96 239.974 515.434 240.197 516.84 240.66C518.008 241.051 519.084 241.677 520 242.5C520.845 243.289 521.504 244.255 521.93 245.33C522.369 246.493 522.586 247.727 522.57 248.97C522.592 250.239 522.375 251.501 521.93 252.69C521.514 253.75 520.856 254.698 520.01 255.46C519.089 256.259 518.008 256.852 516.84 257.2C515.421 257.614 513.948 257.813 512.47 257.79H504.78ZM504.78 255.65H512.48C513.646 255.673 514.809 255.504 515.92 255.15C516.8 254.864 517.603 254.382 518.27 253.74C518.876 253.151 519.334 252.428 519.61 251.63C519.906 250.789 520.055 249.902 520.05 249.01C520.053 248.112 519.904 247.219 519.61 246.37C519.333 245.552 518.875 244.806 518.27 244.19C517.609 243.523 516.805 243.013 515.92 242.7C514.815 242.317 513.65 242.134 512.48 242.16H504.78V255.65Z" fill="#005470"/>
<path d="M541.63 261.61H528L524.9 270H522.23L533.6 240H536L547.37 270H544.73L541.63 261.61ZM528.77 259.44H540.82L534.82 243.09L528.77 259.44Z" fill="#005470"/>
<path d="M563 257.53H554.27V270H551.71V240H561.47C562.904 239.98 564.334 240.175 565.71 240.58C566.887 240.923 567.982 241.502 568.93 242.28C569.803 243.039 570.488 243.991 570.93 245.06C571.422 246.262 571.663 247.552 571.64 248.85C571.646 249.802 571.494 250.748 571.19 251.65C570.921 252.492 570.519 253.285 570 254C569.434 254.706 568.759 255.317 568 255.81C567.222 256.33 566.369 256.728 565.47 256.99L573 269.76V270H570.3L563 257.53ZM554.27 255.36H562.05C563.102 255.381 564.148 255.198 565.13 254.82C565.963 254.506 566.719 254.018 567.35 253.39C567.934 252.798 568.387 252.089 568.68 251.31C568.976 250.52 569.125 249.683 569.12 248.84C569.136 247.89 568.97 246.947 568.63 246.06C568.313 245.248 567.805 244.524 567.15 243.95C566.451 243.344 565.634 242.891 564.75 242.62C563.688 242.295 562.581 242.14 561.47 242.16H554.27V255.36Z" fill="#005470"/>
<path d="M594.83 261.61H581.19L578.1 270H575.44L586.8 240H589.22L600.58 270H597.94L594.83 261.61ZM582 259.44H594L588 243.09L582 259.44Z" fill="#005470"/>
<path d="M617.81 257.79V270H615.27V240H625.5C626.98 239.973 628.454 240.196 629.86 240.66C631.022 241.051 632.091 241.677 633 242.5C633.848 243.286 634.508 244.253 634.93 245.33C635.372 246.492 635.593 247.727 635.58 248.97C635.599 250.24 635.378 251.502 634.93 252.69C634.521 253.753 633.862 254.703 633.01 255.46C632.094 256.26 631.016 256.854 629.85 257.2C628.427 257.613 626.951 257.812 625.47 257.79H617.81ZM617.81 255.65H625.5C626.67 255.673 627.835 255.504 628.95 255.15C629.828 254.859 630.63 254.378 631.3 253.74C631.899 253.146 632.357 252.425 632.64 251.63C632.933 250.788 633.079 249.902 633.07 249.01C633.076 248.112 632.93 247.22 632.64 246.37C632.355 245.555 631.898 244.812 631.3 244.19C630.65 243.533 629.865 243.025 629 242.7C627.891 242.317 626.723 242.134 625.55 242.16H617.86L617.81 255.65Z" fill="#005470"/>
<path d="M657.87 255.63H643.87V267.88H660V270H641.28V240H659.87V242.17H643.87V253.49H657.87V255.63Z" fill="#005470"/>
<path d="M687.68 270H685.14L667.87 244.29V270H665.32V240H667.87L685.16 265.73V240H687.68V270Z" fill="#005470"/>
<path d="M712.31 262.64C712.319 261.888 712.183 261.141 711.91 260.44C711.6 259.758 711.134 259.159 710.55 258.69C709.779 258.09 708.927 257.602 708.02 257.24C706.741 256.721 705.432 256.28 704.1 255.92C702.711 255.534 701.346 255.07 700.01 254.53C698.905 254.087 697.869 253.491 696.93 252.76C696.103 252.136 695.421 251.341 694.93 250.43C694.452 249.471 694.215 248.411 694.24 247.34C694.227 246.242 694.481 245.158 694.98 244.18C695.482 243.222 696.193 242.388 697.06 241.74C698.022 241.022 699.106 240.484 700.26 240.15C701.581 239.759 702.952 239.567 704.33 239.58C705.787 239.558 707.236 239.795 708.61 240.28C709.805 240.708 710.908 241.359 711.86 242.2C712.74 242.994 713.442 243.965 713.92 245.05C714.404 246.153 714.65 247.346 714.64 248.55H712.08C712.088 247.622 711.915 246.701 711.57 245.84C711.228 245.019 710.713 244.283 710.06 243.68C709.35 243.052 708.525 242.57 707.63 242.26C706.567 241.905 705.451 241.733 704.33 241.75C703.224 241.728 702.121 241.876 701.06 242.19C700.205 242.431 699.407 242.839 698.71 243.39C698.112 243.848 697.628 244.439 697.296 245.115C696.965 245.792 696.795 246.536 696.8 247.29C696.787 247.978 696.924 248.66 697.2 249.29C697.509 249.95 697.972 250.526 698.55 250.97C699.312 251.567 700.153 252.055 701.05 252.42C702.286 252.938 703.56 253.362 704.86 253.69C706.298 254.082 707.711 254.563 709.09 255.13C710.223 255.587 711.281 256.211 712.23 256.98C713.046 257.643 713.708 258.476 714.17 259.42C714.626 260.424 714.852 261.517 714.83 262.62C714.848 263.765 714.58 264.896 714.05 265.91C713.532 266.884 712.8 267.728 711.91 268.38C710.921 269.086 709.814 269.608 708.64 269.92C707.295 270.29 705.905 270.472 704.51 270.46C703.608 270.457 702.709 270.381 701.82 270.23C700.933 270.084 700.062 269.853 699.22 269.54C698.4 269.238 697.619 268.842 696.89 268.36C696.176 267.886 695.542 267.302 695.01 266.63C694.466 265.944 694.043 265.169 693.76 264.34C693.433 263.419 693.274 262.447 693.29 261.47H695.83C695.794 262.588 696.063 263.694 696.61 264.67C697.105 265.521 697.789 266.246 698.61 266.79C699.469 267.332 700.411 267.727 701.4 267.96C702.414 268.19 703.45 268.307 704.49 268.31C705.567 268.323 706.64 268.189 707.68 267.91C708.557 267.677 709.387 267.291 710.13 266.77C710.79 266.308 711.328 265.694 711.7 264.98C712.098 264.264 712.307 263.459 712.31 262.64Z" fill="#005470"/>
<path d="M736.55 261.61H722.91L719.82 270H717.16L728.52 240H730.94L742.3 270H739.66L736.55 261.61ZM723.7 259.44H735.7L729.7 243.09L723.7 259.44Z" fill="#005470"/>
<path d="M757.94 257.53H749.21V270H746.66V240H756.41C757.844 239.98 759.274 240.175 760.65 240.58C761.827 240.923 762.922 241.502 763.87 242.28C764.746 243.037 765.431 243.989 765.87 245.06C766.366 246.261 766.608 247.551 766.58 248.85C766.586 249.802 766.434 250.748 766.13 251.65C765.839 252.503 765.406 253.301 764.85 254.01C764.286 254.718 763.611 255.329 762.85 255.82C762.073 256.343 761.22 256.741 760.32 257L767.83 269.77V270H765.13L757.94 257.53ZM749.21 255.36H757C758.052 255.381 759.098 255.198 760.08 254.82C760.913 254.506 761.669 254.018 762.3 253.39C762.888 252.8 763.341 252.091 763.63 251.31C763.929 250.521 764.082 249.684 764.08 248.84C764.093 247.89 763.924 246.946 763.58 246.06C763.263 245.248 762.755 244.524 762.1 243.95C761.401 243.344 760.584 242.891 759.7 242.62C758.638 242.295 757.531 242.14 756.42 242.16H749.22L749.21 255.36Z" fill="#005470"/>
<path d="M792.62 256.37L801.8 240H804.73L793.87 258.73V270H791.34V258.72L780.51 240H783.51L792.62 256.37Z" fill="#005470"/>
<path d="M836.37 262.64C836.379 261.888 836.243 261.141 835.97 260.44C835.66 259.758 835.194 259.159 834.61 258.69C833.842 258.086 832.99 257.597 832.08 257.24C830.801 256.721 829.492 256.28 828.16 255.92C826.775 255.534 825.413 255.07 824.08 254.53C822.972 254.087 821.932 253.491 820.99 252.76C820.164 252.136 819.481 251.341 818.99 250.43C818.512 249.471 818.275 248.411 818.3 247.34C818.287 246.242 818.541 245.158 819.04 244.18C819.543 243.219 820.258 242.385 821.13 241.74C822.089 241.022 823.17 240.483 824.32 240.15C825.641 239.759 827.013 239.566 828.39 239.58C829.847 239.558 831.296 239.795 832.67 240.28C833.894 240.699 835.025 241.351 836 242.2C836.88 242.994 837.582 243.965 838.06 245.05C838.544 246.153 838.79 247.346 838.78 248.55H836.22C836.228 247.622 836.055 246.701 835.71 245.84C835.368 245.019 834.853 244.283 834.2 243.68C833.491 243.052 832.665 242.57 831.77 242.26C830.707 241.904 829.591 241.732 828.47 241.75C827.364 241.728 826.261 241.876 825.2 242.19C824.346 242.434 823.548 242.841 822.85 243.39C822.245 243.859 821.756 244.462 821.42 245.15C821.101 245.818 820.937 246.55 820.94 247.29C820.928 247.978 821.064 248.66 821.34 249.29C821.649 249.95 822.112 250.526 822.69 250.97C823.455 251.563 824.296 252.05 825.19 252.42C826.427 252.938 827.7 253.362 829 253.69C830.44 254.078 831.852 254.559 833.23 255.13C834.363 255.587 835.421 256.211 836.37 256.98C837.186 257.643 837.848 258.476 838.31 259.42C838.766 260.424 838.992 261.517 838.97 262.62C838.986 263.763 838.722 264.893 838.2 265.91C837.675 266.882 836.941 267.726 836.05 268.38C835.062 269.086 833.954 269.608 832.78 269.92C831.435 270.29 830.045 270.472 828.65 270.46C827.749 270.457 826.849 270.381 825.96 270.23C825.073 270.084 824.203 269.853 823.36 269.54C822.54 269.238 821.759 268.842 821.03 268.36C820.316 267.886 819.682 267.302 819.15 266.63C818.606 265.944 818.183 265.169 817.9 264.34C817.573 263.419 817.414 262.447 817.43 261.47H819.97C819.934 262.588 820.203 263.694 820.75 264.67C821.245 265.521 821.929 266.246 822.75 266.79C823.609 267.332 824.552 267.727 825.54 267.96C826.554 268.19 827.59 268.307 828.63 268.31C829.707 268.323 830.78 268.189 831.82 267.91C832.698 267.679 833.528 267.293 834.27 266.77C834.93 266.308 835.468 265.694 835.84 264.98C836.21 264.257 836.392 263.452 836.37 262.64Z" fill="#005470"/>
<path d="M861 255.63H846.93V267.88H863.08V270H844.39V240H863V242.17H846.93V253.49H861V255.63Z" fill="#005470"/>
<path d="M879.65 257.53H870.92V270H868.37V240H878.12C879.555 239.98 880.984 240.175 882.36 240.58C883.537 240.923 884.633 241.502 885.58 242.28C886.456 243.037 887.141 243.989 887.58 245.06C888.076 246.261 888.318 247.551 888.29 248.85C888.296 249.802 888.144 250.748 887.84 251.65C887.561 252.497 887.142 253.291 886.6 254C886.036 254.708 885.361 255.319 884.6 255.81C883.833 256.333 882.99 256.735 882.1 257L889.61 269.77V270H886.91L879.65 257.53ZM870.92 255.36H878.7C879.752 255.381 880.798 255.198 881.78 254.82C882.613 254.506 883.369 254.018 884 253.39C884.588 252.8 885.041 252.091 885.33 251.31C885.629 250.521 885.782 249.684 885.78 248.84C885.794 247.89 885.624 246.946 885.28 246.06C884.956 245.266 884.449 244.56 883.8 244C883.101 243.394 882.284 242.941 881.4 242.67C880.338 242.345 879.231 242.19 878.12 242.21H870.92V255.36Z" fill="#005470"/>
<path d="M388.05 128.79H353.73V221.79H326.18V128.79H292.49V107.51H388.05V128.79Z" fill="#005470"/>
<path d="M442.15 181.4H427.23V221.84H399.67V107.51H444.67C458.223 107.51 468.823 110.51 476.47 116.51C484.117 122.51 487.933 131.007 487.92 142C487.92 149.94 486.31 156.527 483.09 161.76C479.87 166.993 474.84 171.24 468 174.5L491.87 220.66V221.84H462.33L442.15 181.4ZM427.23 160.2H444.66C449.893 160.2 453.83 158.823 456.47 156.07C459.11 153.317 460.443 149.47 460.47 144.53C460.47 139.603 459.137 135.737 456.47 132.93C453.803 130.123 449.877 128.72 444.69 128.72H427.23V160.2Z" fill="#005470"/>
<path d="M575.47 173.31H532.13V200.64H583.32V221.84H504.57V107.51H583.48V128.79H532.13V152.9H575.47V173.31Z" fill="#005470"/>
<path d="M690 221.84H662.6L622.11 150.7V221.84H594.55V107.51H622.11L662.54 178.65V107.51H690V221.84Z" fill="#005470"/>
<path d="M778.35 173.31H735V200.64H786.2V221.84H707.45V107.51H786.36V128.79H735V152.9H778.34L778.35 173.31Z" fill="#005470"/>
<path d="M839.91 181.4H825V221.84H797.43V107.51H842.43C855.99 107.51 866.59 110.51 874.23 116.51C881.87 122.51 885.69 131.007 885.69 142C885.69 149.94 884.08 156.527 880.86 161.76C877.64 166.993 872.6 171.24 865.74 174.5L889.61 220.66V221.84H860.09L839.91 181.4ZM825 160.2H842.43C847.67 160.2 851.61 158.823 854.25 156.07C856.89 153.317 858.223 149.47 858.25 144.53C858.25 139.603 856.917 135.737 854.25 132.93C851.583 130.123 847.657 128.72 842.47 128.72H825V160.2Z" fill="#005470"/>
<path d="M372.14 66.5001C371.837 71.226 370.7 75.861 368.78 80.1901C366.963 84.2587 364.313 87.9005 361 90.8801C357.5 93.9811 353.422 96.36 349 97.8801C343.804 99.6361 338.344 100.488 332.86 100.4C327.07 100.49 321.323 99.3836 315.98 97.15C311.089 95.0426 306.75 91.8363 303.3 87.7801C299.672 83.4342 296.952 78.4051 295.3 72.9901C293.364 66.6743 292.422 60.0955 292.51 53.4901V47C292.422 40.3806 293.398 33.79 295.4 27.48C297.113 22.0482 299.883 17.0084 303.55 12.65C307.046 8.59225 311.415 5.37859 316.33 3.25005C321.632 1.02024 327.339 -0.0863689 333.09 4.97508e-05C338.577 -0.0976308 344.037 0.775822 349.22 2.58005C353.633 4.14668 357.684 6.58887 361.13 9.76004C364.409 12.8388 367.013 16.5639 368.78 20.7C370.659 25.0854 371.836 29.7389 372.27 34.4901H352.14C351.974 31.8654 351.466 29.2736 350.63 26.78C349.931 24.6723 348.774 22.746 347.24 21.14C345.648 19.542 343.692 18.3546 341.54 17.68C338.804 16.8407 335.951 16.4457 333.09 16.51C326.29 16.51 321.223 18.98 317.89 23.92C314.557 28.86 312.89 36.5267 312.89 46.92V53.4901C312.84 57.948 313.208 62.4009 313.99 66.79C314.574 70.1468 315.756 73.3714 317.48 76.3101C318.965 78.7616 321.106 80.7496 323.66 82.0501C326.522 83.3952 329.659 84.0495 332.82 83.9601C335.598 84.0114 338.368 83.6508 341.04 82.8901C343.182 82.2838 345.148 81.1756 346.776 79.6573C348.404 78.1391 349.646 76.2545 350.4 74.1601C351.302 71.698 351.841 69.1175 352 66.5001H372.14Z" fill="#B3A574"/>
<path d="M472.9 52.4C473.005 59.2189 471.992 66.009 469.9 72.5C468.111 78.0398 465.224 83.1619 461.41 87.56C457.791 91.6556 453.31 94.8998 448.29 97.06C437.5 101.487 425.4 101.487 414.61 97.06C409.576 94.8885 405.075 91.6467 401.42 87.56C397.572 83.1646 394.641 78.0443 392.8 72.5C390.661 66.0184 389.62 59.2248 389.72 52.4V48.11C389.622 41.3008 390.652 34.5223 392.77 28.05C394.589 22.4757 397.499 17.319 401.33 12.88C404.946 8.75284 409.439 5.48647 414.48 3.32001C425.27 -1.10651 437.37 -1.10651 448.16 3.32001C453.2 5.48912 457.692 8.75509 461.31 12.88C465.138 17.3195 468.044 22.4763 469.86 28.05C471.981 34.5217 473.015 41.3002 472.92 48.11L472.9 52.4ZM452.5 48C452.5 37.7533 450.667 29.97 447 24.65C443.333 19.33 438.1 16.6633 431.3 16.65C424.5 16.65 419.267 19.3167 415.6 24.65C411.933 29.9833 410.1 37.7667 410.1 48V52.42C410.034 56.9682 410.518 61.5077 411.54 65.94C412.325 69.4525 413.734 72.7955 415.7 75.81C417.388 78.3355 419.681 80.3983 422.37 81.81C425.185 83.1959 428.293 83.882 431.43 83.81C438.23 83.81 443.443 81.1267 447.07 75.76C450.697 70.3933 452.507 62.5867 452.5 52.34V48Z" fill="#B3A574"/>
<path d="M515 82.87H557.74V99H494.82V1.30005H515V82.87Z" fill="#B3A574"/>
<path d="M635.3 56.69H596.65V82.87H642V99H576.53V1.30005H641.88V17.61H596.65V40.89H635.3V56.69Z" fill="#B3A574"/>
<path d="M738.41 86.69C736.98 88.3354 735.385 89.8298 733.65 91.1499C731.311 92.9324 728.762 94.4202 726.06 95.58C722.598 97.08 718.993 98.2259 715.3 99C710.598 99.978 705.803 100.441 701 100.38C695.093 100.454 689.228 99.3948 683.72 97.2599C678.624 95.2534 674.047 92.1223 670.33 88.1C666.465 83.804 663.53 78.7548 661.71 73.27C659.592 66.7749 658.578 59.9705 658.71 53.1399V47.3699C658.601 40.5371 659.587 33.731 661.63 27.21C663.338 21.7461 666.146 16.6893 669.88 12.35C673.421 8.33249 677.843 5.18739 682.8 3.15995C688.144 0.996754 693.866 -0.0775881 699.63 -4.88972e-05C705.213 -0.116516 710.778 0.687587 716.1 2.37996C720.392 3.77579 724.346 6.05082 727.71 9.05995C730.83 11.933 733.314 15.4281 735 19.32C736.787 23.488 737.94 27.9003 738.42 32.41H718.82C718.466 30.1155 717.834 27.8724 716.94 25.7299C716.139 23.8086 714.951 22.0727 713.45 20.63C711.88 19.1679 710.015 18.0597 707.98 17.38C705.479 16.5689 702.859 16.1835 700.23 16.24C693.337 16.24 688.103 18.8433 684.53 24.05C680.957 29.2566 679.167 36.9866 679.16 47.24V53.1399C679.16 63.3933 681.107 71.1333 685 76.36C688.893 81.5866 694.597 84.2033 702.11 84.21C704.223 84.232 706.334 84.0747 708.42 83.74C709.986 83.4893 711.526 83.0943 713.02 82.56C714.137 82.1656 715.204 81.642 716.2 81C716.946 80.5242 717.643 79.9748 718.28 79.36V62.5399H700V47.71H738.45L738.41 86.69Z" fill="#B3A574"/>
<path d="M783.42 99H763.29V1.30005H783.42V99Z" fill="#B3A574"/>
<path d="M889.61 52.4C889.721 59.2193 888.707 66.0102 886.61 72.5C884.822 78.0398 881.934 83.1619 878.12 87.56C874.507 91.6574 870.029 94.902 865.01 97.06C854.216 101.487 842.114 101.487 831.32 97.06C826.289 94.888 821.791 91.6462 818.14 87.56C814.288 83.1672 811.357 78.0461 809.52 72.5C807.373 66.0201 806.328 59.2257 806.43 52.4V48.11C806.335 41.3002 807.369 34.5217 809.49 28.05C811.294 22.4795 814.186 17.3229 818 12.88C821.618 8.75509 826.11 5.48912 831.15 3.32001C841.941 -1.10651 854.04 -1.10651 864.83 3.32001C869.879 5.4839 874.379 8.75042 878 12.88C881.828 17.3214 884.737 22.4774 886.56 28.05C888.673 34.5234 889.704 41.3011 889.61 48.11V52.4ZM869.22 48C869.22 37.7533 867.384 29.97 863.71 24.65C860.037 19.33 854.803 16.6633 848.01 16.65C841.21 16.65 835.977 19.3167 832.31 24.65C828.643 29.9833 826.81 37.7667 826.81 48V52.42C826.749 56.968 827.232 61.5069 828.25 65.94C829.039 69.4511 830.448 72.7933 832.41 75.81C834.099 78.3382 836.396 80.4014 839.09 81.81C841.905 83.1959 845.013 83.882 848.15 83.81C854.95 83.81 860.16 81.1267 863.78 75.76C867.4 70.3933 869.213 62.5867 869.22 52.34V48Z" fill="#B3A574"/>
</g>
<defs>
<clipPath id="clip0_201_730">
<rect width="889.61" height="272.2" fill="white"/>
</clipPath>
</defs>
</svg>
