<svg width="273" height="273" viewBox="0 0 273 273" fill="none" xmlns="http://www.w3.org/2000/svg">
<path d="M272.13 0H0V272.13H272.13V0Z" fill="#B3A574"/>
<path d="M6.29004 5.6001V136.77L100.09 64.8001L140.38 104.93L140.39 104.94L231.91 36.3001L265.84 70.0801V5.6001H6.29004Z" fill="#8D132B"/>
<path d="M237.4 83.6301L229.18 75.4401L198.48 98.4601L147.4 136.77H97.93L116.4 122.92L97.55 104.15L55.03 136.77H80.25V272.13H191.88V136.77H231.58H265.84V111.96L237.4 83.6301Z" fill="#005470"/>
<path d="M231.91 36.3L140.39 104.94L140.38 104.93L100.09 64.8001L6.29004 136.77H55.03L97.55 104.15L116.4 122.92L97.93 136.77H147.4L198.48 98.46L229.18 75.4401L237.4 83.63L252.3 98.46L265.84 111.96V72.7901V70.0801L231.91 36.3Z" fill="#FDFEFD"/>
</svg>
