<svg id="Capa_1" data-name="Capa 1" xmlns="http://www.w3.org/2000/svg" viewBox="0 0 889.61 272.2"><defs><style>.cls-1{fill:#b3a574;}.cls-2{fill:#8d132b;}.cls-3{fill:#005470;}.cls-4{fill:#fdfefd;}.cls-5{fill:#fff;}</style></defs><rect class="cls-1" y="0.07" width="272.13" height="272.13"/><polygon class="cls-2" points="6.29 5.67 6.29 136.84 100.09 64.87 140.38 105 140.39 105.01 231.91 36.37 265.84 70.15 265.84 5.67 6.29 5.67"/><polygon class="cls-3" points="237.4 83.7 229.18 75.51 198.48 98.53 147.4 136.84 97.93 136.84 116.4 122.99 97.55 104.22 55.03 136.84 80.25 136.84 80.25 136.84 80.25 272.2 191.88 272.2 191.88 136.84 231.58 136.84 265.84 136.84 265.84 112.03 237.4 83.7"/><polygon class="cls-4" points="231.91 36.37 140.39 105.01 140.38 105 100.09 64.87 6.29 136.84 55.03 136.84 97.55 104.22 116.4 122.99 97.93 136.84 147.4 136.84 198.48 98.53 229.18 75.51 237.4 83.7 252.3 98.53 265.84 112.03 265.84 72.86 265.84 70.15 231.91 36.37"/><path class="cls-5" d="M409.64,375v20.36a10.84,10.84,0,0,1-.84,4.43,8.88,8.88,0,0,1-2.27,3.14,9.57,9.57,0,0,1-3.36,1.89,13.21,13.21,0,0,1-4.12.63,13.41,13.41,0,0,1-4.18-.63,9.44,9.44,0,0,1-3.35-1.89,8.53,8.53,0,0,1-2.22-3.14,11.19,11.19,0,0,1-.81-4.43V375H391v20.36a9.24,9.24,0,0,0,.6,3.47,6.55,6.55,0,0,0,1.67,2.47,7.1,7.1,0,0,0,2.54,1.5,10.68,10.68,0,0,0,6.46,0,7.1,7.1,0,0,0,2.54-1.5,6.77,6.77,0,0,0,1.66-2.47,9.24,9.24,0,0,0,.6-3.47V375Z" transform="translate(-96 -135)"/><path class="cls-5" d="M439.07,405h-2.53l-17.27-25.71V405h-2.56V375h2.56l17.29,25.73V375h2.51Z" transform="translate(-96 -135)"/><path class="cls-5" d="M459.54,402.88h14.83V405H457V375h2.56Z" transform="translate(-96 -135)"/><path class="cls-5" d="M498.81,375v20.36a11,11,0,0,1-.83,4.43,8.88,8.88,0,0,1-2.27,3.14,9.57,9.57,0,0,1-3.36,1.89,13.21,13.21,0,0,1-4.12.63,13.41,13.41,0,0,1-4.18-.63,9.44,9.44,0,0,1-3.35-1.89,8.67,8.67,0,0,1-2.23-3.14,11.38,11.38,0,0,1-.8-4.43V375h2.52v20.36a9.44,9.44,0,0,0,.59,3.47,6.69,6.69,0,0,0,1.68,2.47,7.1,7.1,0,0,0,2.54,1.5,10.68,10.68,0,0,0,6.46,0,7.1,7.1,0,0,0,2.54-1.5,6.77,6.77,0,0,0,1.66-2.47,9.24,9.24,0,0,0,.6-3.47V375Z" transform="translate(-96 -135)"/><path class="cls-5" d="M527.57,401.46a7.77,7.77,0,0,1-1.19,1.26,8.4,8.4,0,0,1-2.06,1.3,16,16,0,0,1-3.05,1,18.83,18.83,0,0,1-4.14.41,12.09,12.09,0,0,1-4.87-1,10.79,10.79,0,0,1-3.8-2.74,12.57,12.57,0,0,1-2.49-4.32,17.27,17.27,0,0,1-.88-5.7v-3.65a18.1,18.1,0,0,1,.8-5.59,12.18,12.18,0,0,1,2.32-4.25,10.21,10.21,0,0,1,3.66-2.7,11.76,11.76,0,0,1,4.85-.95,13.23,13.23,0,0,1,4.41.67,9.54,9.54,0,0,1,3.26,1.87,8.87,8.87,0,0,1,2.13,2.81,11.67,11.67,0,0,1,1,3.52H525a10.26,10.26,0,0,0-.78-2.56,6.63,6.63,0,0,0-1.55-2.13,7.46,7.46,0,0,0-2.44-1.47,10.1,10.1,0,0,0-3.5-.54,8.94,8.94,0,0,0-3.9.81,7.94,7.94,0,0,0-2.85,2.29,10.16,10.16,0,0,0-1.77,3.56,16.68,16.68,0,0,0-.6,4.62v3.69a15.86,15.86,0,0,0,.68,4.78,11,11,0,0,0,1.93,3.64,8.63,8.63,0,0,0,3,2.33,9.05,9.05,0,0,0,3.9.82,16.39,16.39,0,0,0,3.06-.25,13.49,13.49,0,0,0,2.29-.65,8.3,8.3,0,0,0,1.59-.85,4.66,4.66,0,0,0,1-.87v-7.75H517v-2.15h10.6Z" transform="translate(-96 -135)"/><path class="cls-5" d="M551,396.61H537.35l-3.1,8.42h-2.66L543,375h2.41l11.37,30H554.1Zm-12.85-2.17h12l-6-16.35Z" transform="translate(-96 -135)"/><path class="cls-5" d="M572.38,392.53h-8.73V405h-2.56V375h9.76a14.3,14.3,0,0,1,4.24.58,9.08,9.08,0,0,1,3.22,1.7,7.47,7.47,0,0,1,2,2.78,9.56,9.56,0,0,1,.71,3.79,8.6,8.6,0,0,1-.45,2.8,8.28,8.28,0,0,1-1.28,2.36,8.51,8.51,0,0,1-2,1.81,9.16,9.16,0,0,1-2.53,1.18l7.51,12.77V405h-2.7Zm-8.73-2.17h7.78a8.11,8.11,0,0,0,3.08-.54,6.3,6.3,0,0,0,2.22-1.43,5.93,5.93,0,0,0,1.33-2.08,6.92,6.92,0,0,0,.44-2.47,7.41,7.41,0,0,0-.49-2.78,5.43,5.43,0,0,0-1.48-2.11,6.64,6.64,0,0,0-2.4-1.33,10.56,10.56,0,0,0-3.28-.46h-7.2Z" transform="translate(-96 -135)"/><path class="cls-5" d="M600.78,392.79V405h-2.54V375h10.24a13.19,13.19,0,0,1,4.36.66A9,9,0,0,1,616,377.5a7.8,7.8,0,0,1,1.93,2.83,9.94,9.94,0,0,1,.64,3.64,10.11,10.11,0,0,1-.64,3.72,7.34,7.34,0,0,1-1.92,2.77,8.58,8.58,0,0,1-3.17,1.74,14.81,14.81,0,0,1-4.37.59Zm0-2.14h7.7a10.63,10.63,0,0,0,3.44-.5,6.12,6.12,0,0,0,2.35-1.41,5.4,5.4,0,0,0,1.34-2.11,7.75,7.75,0,0,0,.44-2.62,8,8,0,0,0-.44-2.64,5.73,5.73,0,0,0-1.34-2.18,6.24,6.24,0,0,0-2.35-1.49,9.82,9.82,0,0,0-3.44-.54h-7.7Z" transform="translate(-96 -135)"/><path class="cls-5" d="M637.63,396.61H624L620.9,405h-2.67l11.37-30H632l11.37,30h-2.64Zm-12.86-2.17h12.05l-6-16.35Z" transform="translate(-96 -135)"/><path class="cls-5" d="M659,392.53h-8.73V405h-2.56V375h9.76a14.3,14.3,0,0,1,4.24.58,9.08,9.08,0,0,1,3.22,1.7,7.47,7.47,0,0,1,2,2.78,9.56,9.56,0,0,1,.71,3.79,8.6,8.6,0,0,1-.45,2.8A8.28,8.28,0,0,1,666,389a8.51,8.51,0,0,1-2,1.81,9.16,9.16,0,0,1-2.53,1.18L669,404.76V405h-2.7Zm-8.73-2.17h7.78a8.11,8.11,0,0,0,3.08-.54,6.3,6.3,0,0,0,2.22-1.43,5.93,5.93,0,0,0,1.33-2.08,6.92,6.92,0,0,0,.44-2.47,7.41,7.41,0,0,0-.49-2.78,5.43,5.43,0,0,0-1.48-2.11,6.64,6.64,0,0,0-2.4-1.33,10.56,10.56,0,0,0-3.28-.46h-7.2Z" transform="translate(-96 -135)"/><path class="cls-5" d="M690.83,396.61H677.19L674.1,405h-2.66l11.36-30h2.42l11.36,30h-2.64ZM678,394.44h12l-6-16.35Z" transform="translate(-96 -135)"/><path class="cls-5" d="M713.81,392.79V405h-2.54V375H721.5a13.15,13.15,0,0,1,4.36.66A8.91,8.91,0,0,1,729,377.5a7.68,7.68,0,0,1,1.93,2.83,9.94,9.94,0,0,1,.65,3.64,10.11,10.11,0,0,1-.65,3.72,7.13,7.13,0,0,1-1.92,2.77,8.46,8.46,0,0,1-3.16,1.74,14.93,14.93,0,0,1-4.38.59Zm0-2.14h7.69a10.69,10.69,0,0,0,3.45-.5,6.27,6.27,0,0,0,2.35-1.41,5.63,5.63,0,0,0,1.34-2.11,7.74,7.74,0,0,0,.43-2.62,8,8,0,0,0-.43-2.64,6,6,0,0,0-1.34-2.18A6.41,6.41,0,0,0,725,377.7a9.88,9.88,0,0,0-3.45-.54h-7.69Z" transform="translate(-96 -135)"/><path class="cls-5" d="M753.87,390.63h-14v12.25H756V405H737.28V375h18.59v2.17h-16v11.32h14Z" transform="translate(-96 -135)"/><path class="cls-5" d="M783.68,405h-2.54l-17.27-25.71V405h-2.55V375h2.55l17.29,25.73V375h2.52Z" transform="translate(-96 -135)"/><path class="cls-5" d="M808.31,397.64a5.87,5.87,0,0,0-.4-2.2,4.79,4.79,0,0,0-1.36-1.75,10.41,10.41,0,0,0-2.53-1.45,34.12,34.12,0,0,0-3.92-1.32,38.16,38.16,0,0,1-4.09-1.39,12.71,12.71,0,0,1-3.08-1.77,7.2,7.2,0,0,1-2-2.33,6.58,6.58,0,0,1-.69-3.09,6.78,6.78,0,0,1,.74-3.16,7.25,7.25,0,0,1,2.08-2.44,10,10,0,0,1,3.2-1.59,13.85,13.85,0,0,1,4.07-.57,12.32,12.32,0,0,1,4.28.7,10,10,0,0,1,3.25,1.92,8.4,8.4,0,0,1,2.06,2.85,8.53,8.53,0,0,1,.72,3.5h-2.56a7.11,7.11,0,0,0-.51-2.71,6.16,6.16,0,0,0-1.51-2.16,7.25,7.25,0,0,0-2.43-1.42,9.94,9.94,0,0,0-3.3-.51,10.78,10.78,0,0,0-3.27.44,6.75,6.75,0,0,0-2.35,1.2,4.87,4.87,0,0,0-1.91,3.9,4.77,4.77,0,0,0,.4,2,4.56,4.56,0,0,0,1.35,1.68,10.44,10.44,0,0,0,2.5,1.45,26.84,26.84,0,0,0,3.81,1.27,35.86,35.86,0,0,1,4.23,1.44,12.28,12.28,0,0,1,3.14,1.85,7.25,7.25,0,0,1,1.94,2.44,7.38,7.38,0,0,1,.66,3.2,6.86,6.86,0,0,1-.78,3.29,7.32,7.32,0,0,1-2.14,2.47,10.09,10.09,0,0,1-3.27,1.54,15.06,15.06,0,0,1-4.13.54,16.38,16.38,0,0,1-2.69-.23,14,14,0,0,1-2.6-.69,11.33,11.33,0,0,1-2.33-1.18,8.15,8.15,0,0,1-1.88-1.73,7.67,7.67,0,0,1-1.25-2.29,8.19,8.19,0,0,1-.47-2.87h2.54a6.14,6.14,0,0,0,.78,3.2,6.41,6.41,0,0,0,2,2.12,9.15,9.15,0,0,0,2.79,1.17,14.15,14.15,0,0,0,3.09.35,11.75,11.75,0,0,0,3.19-.4,7.71,7.71,0,0,0,2.45-1.14,5,5,0,0,0,1.57-1.79A4.85,4.85,0,0,0,808.31,397.64Z" transform="translate(-96 -135)"/><path class="cls-5" d="M832.55,396.61H818.91L815.82,405h-2.66l11.36-30h2.42l11.36,30h-2.64Zm-12.85-2.17h12l-6-16.35Z" transform="translate(-96 -135)"/><path class="cls-5" d="M853.94,392.53h-8.73V405h-2.55V375h9.75a14.3,14.3,0,0,1,4.24.58,9.08,9.08,0,0,1,3.22,1.7,7.37,7.37,0,0,1,2,2.78,9.39,9.39,0,0,1,.71,3.79,8.6,8.6,0,0,1-.45,2.8,8,8,0,0,1-1.28,2.36,8.32,8.32,0,0,1-2,1.81,9,9,0,0,1-2.53,1.18l7.51,12.77V405h-2.7Zm-8.73-2.17H853a8.11,8.11,0,0,0,3.08-.54,6.3,6.3,0,0,0,2.22-1.43,5.79,5.79,0,0,0,1.33-2.08,6.93,6.93,0,0,0,.45-2.47,7.4,7.4,0,0,0-.5-2.78,5.43,5.43,0,0,0-1.48-2.11,6.64,6.64,0,0,0-2.4-1.33,10.56,10.56,0,0,0-3.28-.46h-7.2Z" transform="translate(-96 -135)"/><path class="cls-5" d="M888.62,391.37,897.8,375h2.93l-10.86,18.73V405h-2.53V393.72L876.51,375h3Z" transform="translate(-96 -135)"/><path class="cls-5" d="M932.37,397.64a5.87,5.87,0,0,0-.4-2.2,4.79,4.79,0,0,0-1.36-1.75,10,10,0,0,0-2.53-1.45,34.12,34.12,0,0,0-3.92-1.32,37.94,37.94,0,0,1-4.08-1.39,12.78,12.78,0,0,1-3.09-1.77,7.2,7.2,0,0,1-2-2.33,6.58,6.58,0,0,1-.69-3.09,6.78,6.78,0,0,1,.74-3.16,7.17,7.17,0,0,1,2.09-2.44,9.94,9.94,0,0,1,3.19-1.59,13.85,13.85,0,0,1,4.07-.57,12.28,12.28,0,0,1,4.28.7A10,10,0,0,1,932,377.2a8.4,8.4,0,0,1,2.06,2.85,8.53,8.53,0,0,1,.72,3.5h-2.56a7.11,7.11,0,0,0-.51-2.71,6.16,6.16,0,0,0-1.51-2.16,7.25,7.25,0,0,0-2.43-1.42,9.9,9.9,0,0,0-3.3-.51,10.78,10.78,0,0,0-3.27.44,6.84,6.84,0,0,0-2.35,1.2,5,5,0,0,0-1.43,1.76,4.92,4.92,0,0,0-.48,2.14,4.77,4.77,0,0,0,.4,2,4.56,4.56,0,0,0,1.35,1.68,10.85,10.85,0,0,0,2.5,1.45,26.84,26.84,0,0,0,3.81,1.27,34.65,34.65,0,0,1,4.23,1.44,12.28,12.28,0,0,1,3.14,1.85,7.25,7.25,0,0,1,1.94,2.44,7.38,7.38,0,0,1,.66,3.2,7,7,0,0,1-.77,3.29,7.47,7.47,0,0,1-2.15,2.47,10.09,10.09,0,0,1-3.27,1.54,15.06,15.06,0,0,1-4.13.54,16.38,16.38,0,0,1-2.69-.23,14,14,0,0,1-2.6-.69,11.33,11.33,0,0,1-2.33-1.18,8.15,8.15,0,0,1-1.88-1.73,7.67,7.67,0,0,1-1.25-2.29,8.19,8.19,0,0,1-.47-2.87h2.54a6.14,6.14,0,0,0,.78,3.2,6.41,6.41,0,0,0,2,2.12,9.15,9.15,0,0,0,2.79,1.17,14.15,14.15,0,0,0,3.09.35,11.75,11.75,0,0,0,3.19-.4,7.61,7.61,0,0,0,2.45-1.14,5,5,0,0,0,1.57-1.79A4.85,4.85,0,0,0,932.37,397.64Z" transform="translate(-96 -135)"/><path class="cls-5" d="M957,390.63H942.93v12.25h16.15V405H940.39V375H959v2.17H942.93v11.32H957Z" transform="translate(-96 -135)"/><path class="cls-5" d="M975.65,392.53h-8.73V405h-2.55V375h9.75a14.3,14.3,0,0,1,4.24.58,9.08,9.08,0,0,1,3.22,1.7,7.37,7.37,0,0,1,2,2.78,9.39,9.39,0,0,1,.71,3.79,8.6,8.6,0,0,1-.45,2.8A8,8,0,0,1,982.6,389a8.32,8.32,0,0,1-2,1.81A9,9,0,0,1,978.1,392l7.51,12.77V405h-2.7Zm-8.73-2.17h7.78a8.11,8.11,0,0,0,3.08-.54,6.3,6.3,0,0,0,2.22-1.43,5.79,5.79,0,0,0,1.33-2.08,6.93,6.93,0,0,0,.45-2.47,7.4,7.4,0,0,0-.5-2.78A5.43,5.43,0,0,0,979.8,379a6.64,6.64,0,0,0-2.4-1.33,10.56,10.56,0,0,0-3.28-.46h-7.2Z" transform="translate(-96 -135)"/><path class="cls-5" d="M484.05,263.79H449.73v93H422.18v-93H388.49V242.51h95.56Z" transform="translate(-96 -135)"/><path class="cls-5" d="M538.15,316.4H523.23v40.44H495.67V242.51h45q20.33,0,31.8,9T583.92,277q0,11.91-4.83,19.76T564,309.5l23.87,46.16v1.18H558.33Zm-14.92-21.2h17.43q7.85,0,11.81-4.13t4-11.54q0-7.39-4-11.6t-11.78-4.21H523.23Z" transform="translate(-96 -135)"/><path class="cls-5" d="M671.47,308.31H628.13v27.33h51.19v21.2H600.57V242.51h78.91v21.28H628.13V287.9h43.34Z" transform="translate(-96 -135)"/><path class="cls-5" d="M786,356.84h-27.4L718.11,285.7v71.14H690.55V242.51h27.56l40.43,71.14V242.51H786Z" transform="translate(-96 -135)"/><path class="cls-5" d="M874.35,308.31H831v27.33h51.2v21.2H803.45V242.51h78.91v21.28H831V287.9h43.34Z" transform="translate(-96 -135)"/><path class="cls-5" d="M935.91,316.4H921v40.44H893.43V242.51h45q20.34,0,31.8,9T981.69,277q0,11.91-4.83,19.76T961.74,309.5l23.87,46.16v1.18H956.09ZM921,295.2h17.43q7.86,0,11.82-4.13t4-11.54q0-7.39-4-11.6t-11.78-4.21H921Z" transform="translate(-96 -135)"/><path class="cls-1" d="M468.14,201.5a40.09,40.09,0,0,1-3.36,13.69A31.83,31.83,0,0,1,457,225.88a35.49,35.49,0,0,1-12,7,48,48,0,0,1-16.14,2.52,42.07,42.07,0,0,1-16.88-3.25,34.65,34.65,0,0,1-12.68-9.37,42.36,42.36,0,0,1-8-14.79,63.64,63.64,0,0,1-2.79-19.5V182a61.81,61.81,0,0,1,2.89-19.52,43.24,43.24,0,0,1,8.15-14.83,35.48,35.48,0,0,1,12.78-9.4A41.62,41.62,0,0,1,429.09,135a46.54,46.54,0,0,1,16.13,2.58,34.76,34.76,0,0,1,11.91,7.18,32.54,32.54,0,0,1,7.65,10.94,45.52,45.52,0,0,1,3.49,13.79H448.14a30.29,30.29,0,0,0-1.51-7.71,15,15,0,0,0-3.39-5.64,13.92,13.92,0,0,0-5.7-3.46,26.76,26.76,0,0,0-8.45-1.17q-10.2,0-15.2,7.41t-5,23v6.57a71.24,71.24,0,0,0,1.1,13.3,28.44,28.44,0,0,0,3.49,9.52,15.39,15.39,0,0,0,6.18,5.74,20.19,20.19,0,0,0,9.16,1.91,28.12,28.12,0,0,0,8.22-1.07,14,14,0,0,0,9.36-8.73A27,27,0,0,0,448,201.5Z" transform="translate(-96 -135)"/><path class="cls-1" d="M568.9,187.4a62.38,62.38,0,0,1-3,20.1,43.29,43.29,0,0,1-8.49,15.06,37.05,37.05,0,0,1-13.12,9.5,44.37,44.37,0,0,1-33.68,0,37.76,37.76,0,0,1-13.19-9.5,43.83,43.83,0,0,1-8.62-15.06,61.26,61.26,0,0,1-3.08-20.1v-4.29a61.64,61.64,0,0,1,3.05-20.06,44.21,44.21,0,0,1,8.56-15.17,36.8,36.8,0,0,1,13.15-9.56,44.37,44.37,0,0,1,33.68,0,36.89,36.89,0,0,1,13.15,9.56,44.19,44.19,0,0,1,8.55,15.17,61.63,61.63,0,0,1,3.06,20.06ZM548.5,183q0-15.37-5.5-23.35t-15.7-8q-10.2,0-15.7,8T506.1,183v4.42a56.51,56.51,0,0,0,1.44,13.52,30.07,30.07,0,0,0,4.16,9.87,18.19,18.19,0,0,0,6.67,6,19.5,19.5,0,0,0,9.06,2q10.2,0,15.64-8.05t5.43-23.42Z" transform="translate(-96 -135)"/><path class="cls-1" d="M611,217.87h42.74V234H590.82v-97.7H611Z" transform="translate(-96 -135)"/><path class="cls-1" d="M731.3,191.69H692.65v26.18H738V234H672.53v-97.7h65.35v16.31H692.65v23.28H731.3Z" transform="translate(-96 -135)"/><path class="cls-1" d="M834.41,221.69a31.9,31.9,0,0,1-4.76,4.46,35.84,35.84,0,0,1-7.59,4.43A55.92,55.92,0,0,1,811.3,234,66.12,66.12,0,0,1,797,235.38a46.21,46.21,0,0,1-17.28-3.12,36.38,36.38,0,0,1-13.39-9.16,41.9,41.9,0,0,1-8.62-14.83,61.1,61.1,0,0,1-3-20.13v-5.77a64,64,0,0,1,2.92-20.16,42,42,0,0,1,8.25-14.86,34.77,34.77,0,0,1,12.92-9.19A43.3,43.3,0,0,1,795.63,135a50.85,50.85,0,0,1,16.47,2.38,32.48,32.48,0,0,1,11.61,6.68A30.35,30.35,0,0,1,831,154.32a45.4,45.4,0,0,1,3.42,13.09H814.82a28.71,28.71,0,0,0-1.88-6.68,15.18,15.18,0,0,0-3.49-5.1,15,15,0,0,0-5.47-3.25,23.49,23.49,0,0,0-7.75-1.14q-10.34,0-15.7,7.81t-5.37,23.19v5.9q0,15.38,5.84,23.22t17.11,7.85a37.37,37.37,0,0,0,6.31-.47,25.72,25.72,0,0,0,4.6-1.18A15.21,15.21,0,0,0,812.2,216a13.23,13.23,0,0,0,2.08-1.64V197.54H796V182.71h38.45Z" transform="translate(-96 -135)"/><path class="cls-1" d="M879.42,234H859.29v-97.7h20.13Z" transform="translate(-96 -135)"/><path class="cls-1" d="M985.61,187.4a62.1,62.1,0,0,1-3,20.1,43.29,43.29,0,0,1-8.49,15.06,36.93,36.93,0,0,1-13.11,9.5,44.39,44.39,0,0,1-33.69,0,37.73,37.73,0,0,1-13.18-9.5,43.67,43.67,0,0,1-8.62-15.06,61,61,0,0,1-3.09-20.1v-4.29a61.63,61.63,0,0,1,3.06-20.06A44.19,44.19,0,0,1,914,147.88a36.89,36.89,0,0,1,13.15-9.56,44.37,44.37,0,0,1,33.68,0A36.8,36.8,0,0,1,974,147.88a44.37,44.37,0,0,1,8.56,15.17,61.91,61.91,0,0,1,3.05,20.06ZM965.22,183q0-15.37-5.51-23.35t-15.7-8q-10.2,0-15.7,8T922.81,183v4.42a57,57,0,0,0,1.44,13.52,30.28,30.28,0,0,0,4.16,9.87,18.14,18.14,0,0,0,6.68,6,19.5,19.5,0,0,0,9.06,2q10.2,0,15.63-8.05t5.44-23.42Z" transform="translate(-96 -135)"/></svg>